<?xml version="1.0" standalone="no"?>
<!DOCTYPE svg PUBLIC "-//W3C//DTD SVG 20010904//EN"
 "http://www.w3.org/TR/2001/REC-SVG-20010904/DTD/svg10.dtd">
<svg version="1.0" xmlns="http://www.w3.org/2000/svg"
 width="522.000000pt" height="304.000000pt" viewBox="0 0 522.000000 304.000000"
 preserveAspectRatio="xMidYMid meet">
<metadata>
Created by potrace 1.15, written by Peter Selinger 2001-2017
</metadata>
<g transform="translate(0.000000,304.000000) scale(0.100000,-0.100000)"
fill="#000000" stroke="none">
<path d="M1590 2780 c0 -5 -3 -9 -7 -9 -22 4 -25 -3 -7 -16 14 -11 15 -14 4
-15 -13 0 -13 -1 0 -10 11 -7 11 -10 2 -10 -7 0 -10 -4 -7 -10 3 -5 0 -7 -9
-4 -8 3 -12 12 -10 19 3 7 0 16 -7 21 -7 4 -15 2 -17 -4 -2 -7 -8 -10 -13 -6
-5 3 -9 1 -9 -4 0 -5 9 -12 20 -15 14 -4 18 -10 13 -23 -4 -12 -3 -15 5 -10
20 12 13 -4 -13 -30 -32 -32 -32 -60 0 -68 21 -5 23 -9 13 -20 -11 -12 -14
-12 -16 0 -4 16 -35 11 -60 -9 -7 -5 -15 -7 -18 -4 -3 3 6 13 21 23 18 11 22
19 14 24 -8 6 -5 14 10 29 13 13 18 27 14 37 -4 12 -3 15 5 10 7 -4 12 -2 12
3 0 15 -30 14 -30 -1 0 -8 -5 -6 -10 4 -15 25 -52 12 -45 -16 4 -12 3 -16 -2
-9 -6 8 -14 6 -31 -7 -19 -16 -21 -23 -12 -40 9 -17 7 -22 -15 -30 -15 -6 -23
-15 -20 -20 4 -6 11 -8 16 -5 15 10 10 -5 -9 -29 -9 -13 -22 -21 -28 -19 -6 2
-14 -6 -17 -18 -4 -13 -11 -20 -20 -16 -18 7 -52 -48 -36 -58 5 -4 8 -14 5
-22 -5 -13 0 -14 29 -9 20 4 35 3 35 -3 0 -5 3 -17 6 -25 5 -12 2 -15 -9 -10
-10 3 -13 12 -10 22 5 14 3 14 -15 -2 -24 -21 -29 -31 -9 -20 10 6 10 4 0 -7
-15 -15 -17 -33 -4 -25 4 3 13 -6 20 -20 16 -35 14 -40 -8 -20 -14 13 -21 14
-27 5 -4 -8 -3 -10 4 -5 7 4 12 2 12 -3 0 -6 -9 -11 -20 -11 -11 0 -20 5 -20
11 0 6 -7 8 -17 5 -11 -5 -24 1 -36 16 l-18 23 11 -22 c8 -17 8 -29 -1 -44 -6
-12 -12 -47 -13 -78 -1 -44 -5 -56 -19 -59 -25 -5 -33 25 -12 48 22 24 14 50
-14 43 -20 -5 -50 29 -55 64 -2 10 -11 20 -21 22 -13 2 -16 -1 -12 -13 8 -20
-30 -31 -74 -22 -19 3 -42 0 -60 -9 -34 -18 -39 -40 -7 -32 25 7 58 -8 58 -26
0 -7 16 -28 35 -47 19 -18 32 -37 29 -42 -3 -5 0 -15 6 -23 14 -16 5 -35 -16
-35 -17 0 -19 17 -2 22 6 2 -5 14 -26 26 -20 12 -35 26 -32 30 3 5 -11 24 -30
43 -33 32 -36 33 -62 18 -42 -23 -71 -107 -71 -209 -1 -129 -1 -129 8 -134 5
-3 6 -25 4 -49 l-5 -43 153 -18 c85 -10 183 -24 219 -33 89 -20 289 -53 324
-53 24 0 27 2 16 15 -10 13 -10 19 2 33 9 9 21 28 28 41 11 22 11 23 -9 18
-11 -3 -21 -2 -21 2 0 12 45 51 58 51 7 0 12 7 12 15 0 8 9 29 20 47 11 18 20
44 20 58 0 15 5 31 11 37 14 14 36 52 45 75 12 33 108 54 266 57 164 3 168 1
239 -64 25 -23 65 -52 90 -63 24 -11 78 -52 121 -91 72 -67 98 -83 98 -61 0 6
-8 10 -17 10 -13 0 -15 2 -5 8 8 6 12 28 11 63 -1 30 2 75 6 101 4 27 2 83 -4
130 -7 46 -17 115 -22 153 -11 76 -41 195 -49 195 -12 -1 -32 -18 -55 -50 -24
-32 -30 -29 -25 14 1 11 -3 15 -9 12 -7 -4 -8 -1 -5 8 7 19 -7 21 -24 4 -9 -9
-15 -9 -24 0 -23 23 -53 12 -107 -40 -30 -29 -45 -41 -35 -26 10 15 22 28 27
28 4 0 7 5 7 11 0 6 -9 4 -21 -5 -12 -8 -28 -12 -37 -9 -9 4 -13 2 -9 -4 4 -6
0 -14 -9 -17 -31 -12 -37 -6 -15 15 18 17 20 23 10 30 -9 5 -18 1 -27 -14 -12
-21 -13 -20 -8 11 3 19 1 32 -5 32 -6 0 -9 7 -5 15 3 8 1 15 -3 15 -15 0 -20
25 -12 61 6 27 11 33 28 31 12 -2 24 2 28 9 6 8 -2 10 -27 7 -26 -3 -34 0 -31
9 3 7 -2 13 -12 13 -10 0 -14 -5 -9 -12 4 -7 3 -10 -1 -5 -5 4 -10 18 -12 30
-2 12 -11 28 -20 34 -20 15 -32 8 -15 -9 18 -18 14 -27 -8 -21 -11 3 -17 9
-14 14 3 5 0 9 -6 9 -6 0 -8 5 -5 10 4 6 3 10 -2 9 -4 -1 -10 0 -13 1 -19 7
-57 4 -53 -5 4 -5 -3 -2 -15 9 -12 10 -19 23 -16 28 7 12 -19 6 -28 -7 -4 -5
-8 0 -8 13 0 26 -1 26 -35 10 -22 -10 -28 -9 -35 2 -7 12 -12 12 -22 2 -9 -9
-9 -12 0 -12 7 0 9 -7 5 -17 -6 -16 -5 -16 10 -5 13 12 19 10 34 -7 9 -12 22
-21 28 -21 5 0 17 -11 26 -23 15 -21 15 -22 -7 -23 -13 -1 -22 2 -19 6 7 12
-59 19 -70 7 -7 -7 -6 -8 3 -3 6 4 12 2 12 -4 0 -7 7 -10 15 -7 8 4 17 1 21
-5 4 -7 3 -8 -4 -4 -12 7 -38 -32 -27 -42 3 -4 9 -2 13 4 4 6 16 16 28 22 17
9 25 7 43 -9 12 -12 19 -24 16 -27 -4 -4 -11 1 -16 11 -15 25 -38 21 -72 -15
-27 -28 -29 -29 -24 -8 4 17 1 23 -14 27 -11 3 -18 11 -15 19 3 8 0 11 -8 8
-11 -4 -8 -16 11 -50 19 -33 22 -48 14 -58 -13 -15 -5 -26 20 -26 15 0 16 -3
6 -25 -7 -14 -17 -25 -24 -25 -6 0 -26 -15 -44 -32 -20 -21 -30 -26 -26 -15 4
10 7 24 7 29 0 6 3 8 7 5 3 -4 13 2 20 13 8 11 18 18 23 15 5 -3 11 -1 14 4 4
5 -5 8 -19 6 -25 -2 -35 18 -15 30 18 11 29 41 20 55 -8 13 -12 12 -25 -5 -15
-19 -15 -19 -10 10 3 17 2 24 -1 18 -4 -10 -9 -10 -20 1 -11 11 -12 21 -4 41
5 14 14 23 20 20 5 -3 10 -2 10 4 0 16 -20 23 -34 12 -7 -6 -17 -7 -21 -3 -5
4 -6 -1 -2 -10 3 -10 0 -19 -10 -22 -11 -5 -14 -2 -9 10 3 8 6 20 6 26 0 6 6
8 14 5 15 -6 36 13 40 35 3 21 28 62 45 75 9 6 12 15 7 20 -5 4 -11 2 -13 -4
-6 -18 -33 -16 -33 2 0 8 -5 15 -10 15 -6 0 -13 -7 -16 -15 -4 -8 -11 -15 -16
-15 -6 0 -8 7 -4 15 3 8 1 15 -4 15 -6 0 -10 -4 -10 -10z"/>
<path d="M3104 2335 c-21 -19 -54 -41 -71 -47 -18 -7 -33 -15 -33 -19 0 -4 27
-29 61 -54 33 -26 69 -56 80 -68 18 -20 19 -20 20 -1 1 10 1 22 0 26 0 4 8 12
19 18 11 6 20 15 20 21 0 5 10 23 22 39 19 26 20 32 8 55 -13 25 -40 35 -40
15 0 -5 -4 -10 -10 -10 -5 0 -7 7 -4 15 6 15 -11 45 -25 45 -4 0 -25 -16 -47
-35z"/>
<path d="M2816 2188 c-22 -31 -20 -59 4 -65 18 -5 20 -13 19 -65 -2 -60 -19
-95 -19 -38 0 24 -4 31 -17 28 -10 -1 -23 0 -28 4 -6 3 -22 4 -36 1 -21 -4
-26 -9 -21 -26 14 -60 123 -115 148 -75 5 8 2 9 -10 5 -14 -6 -17 -3 -12 9 3
8 6 22 6 29 0 9 10 12 30 10 18 -3 38 3 52 15 l23 18 -28 7 c-20 5 -33 2 -47
-10 -20 -18 -20 -17 -20 34 0 51 0 51 28 45 36 -9 63 -21 87 -39 19 -13 23
-12 55 19 64 62 75 85 43 87 -69 5 -171 3 -184 -3 -12 -5 -16 -3 -15 10 2 27
-39 27 -58 0z"/>
<path d="M3226 2099 c5 -9 2 -10 -9 -6 -11 4 -17 1 -17 -7 0 -15 -50 -26 -117
-26 -27 0 -43 5 -43 12 0 8 -5 7 -15 -3 -14 -14 -11 -22 30 -85 47 -70 75
-145 75 -196 0 -54 -21 -117 -45 -132 -21 -14 -23 -14 -30 7 -4 12 -9 47 -11
77 -2 30 -9 59 -14 64 -6 6 -10 21 -10 34 0 40 -31 82 -57 78 -12 -3 -28 -8
-34 -12 -13 -8 -136 -8 -196 0 -39 5 -43 4 -49 -18 -3 -14 -3 -34 1 -45 4 -14
2 -21 -7 -21 -9 0 -10 -3 -2 -8 6 -4 15 -18 19 -31 7 -22 5 -23 -16 -18 -13 4
-27 7 -30 7 -4 0 -9 9 -12 20 -6 25 -27 26 -27 2 0 -10 -5 -23 -12 -30 -9 -9
-9 -12 2 -12 10 0 11 -3 3 -11 -6 -6 -9 -18 -6 -25 3 -8 -1 -14 -8 -14 -9 -1
-7 -6 5 -15 11 -8 14 -15 8 -15 -7 0 -12 -5 -12 -11 0 -6 7 -9 15 -6 8 4 17 2
20 -4 4 -5 -1 -12 -10 -15 -13 -5 -14 -9 -4 -15 10 -6 10 -11 0 -23 -11 -13
-11 -16 0 -16 8 -1 3 -7 -11 -15 -25 -14 -25 -14 15 -15 22 0 51 3 64 7 20 5
22 10 17 41 -3 20 -10 39 -17 42 -8 6 -8 9 1 15 8 5 6 11 -7 21 -14 11 -15 13
-3 14 12 0 11 3 -3 11 -9 6 -15 14 -12 19 3 5 1 11 -5 15 -18 11 -2 23 25 17
34 -6 36 -10 40 -101 2 -44 7 -91 11 -105 7 -29 -10 -36 -24 -10 -9 16 -13 16
-57 0 -60 -20 -215 -23 -215 -3 0 6 9 45 20 85 10 40 17 79 14 87 -4 9 4 15
28 18 l33 4 -34 1 c-19 1 -43 9 -53 19 -10 9 -18 11 -18 5 0 -6 -7 -9 -16 -5
-15 5 -15 3 0 -25 14 -27 14 -31 0 -42 -8 -7 -16 -11 -17 -9 -1 2 -12 24 -24
49 -21 45 -92 135 -100 127 -2 -3 7 -25 21 -49 17 -30 22 -48 15 -55 -13 -13
25 -233 43 -245 8 -6 0 -8 -27 -4 -67 10 -281 17 -263 9 9 -5 -88 -9 -217 -10
-143 -1 -242 -6 -254 -13 -14 -7 -32 -7 -58 -1 -155 40 -345 73 -353 61 -6 -9
-70 0 -70 10 0 4 -30 11 -67 14 -38 4 -75 9 -84 12 -9 2 -16 -2 -16 -11 0 -15
13 -19 52 -16 11 1 55 -5 98 -13 44 -9 84 -14 90 -13 6 1 11 -5 12 -13 0 -8
11 -17 25 -21 37 -10 58 -9 31 2 -44 18 -16 19 104 4 66 -8 123 -15 127 -15 4
0 11 -18 14 -40 4 -22 10 -40 15 -40 5 0 9 -4 9 -10 0 -5 -6 -7 -14 -4 -10 4
-14 -1 -13 -15 1 -14 9 -21 22 -22 34 -2 -45 -17 -125 -25 -41 -3 -79 -10 -85
-14 -5 -4 -29 -8 -52 -8 -22 -1 -52 -6 -66 -11 -17 -7 -39 -6 -64 1 -36 10
-37 11 -14 20 13 4 42 6 63 3 22 -4 45 -2 51 3 7 6 41 13 77 17 36 4 67 8 68
10 2 2 -20 6 -50 9 -69 8 -161 1 -219 -18 -48 -15 -74 -10 -60 13 6 9 14 10
27 3 14 -7 26 -6 43 2 22 12 21 13 -29 20 -39 5 -50 10 -46 21 9 24 -42 31
-59 9 -8 -11 -15 -14 -15 -8 0 23 -32 9 -48 -20 -13 -25 -17 -27 -20 -13 -5
22 -33 18 -50 -8 -12 -19 -13 -19 -7 3 5 18 2 22 -14 22 -25 0 -27 22 -4 41
11 10 14 10 9 2 -4 -8 -2 -13 7 -13 10 0 13 7 10 21 -3 11 -11 18 -19 15 -16
-6 -29 10 -15 18 5 3 23 3 41 0 29 -6 31 -10 26 -35 -5 -25 -2 -29 15 -29 19
0 20 2 8 17 -12 15 -12 16 3 10 10 -3 24 1 34 10 12 12 13 18 4 21 -6 2 -17
-1 -23 -7 -15 -15 -30 -14 -24 3 3 7 1 18 -4 23 -6 6 -6 19 0 35 10 25 6 38
-11 38 -4 0 -8 -6 -8 -14 0 -8 -6 -17 -12 -19 -8 -3 -5 -6 5 -6 28 -1 11 -18
-26 -25 -37 -7 -79 -62 -58 -75 16 -10 2 -43 -15 -37 -8 3 -14 1 -14 -4 0 -6
8 -10 18 -10 16 -1 16 -1 -1 -14 -15 -12 -16 -14 -2 -20 19 -7 20 -26 0 -26
-17 0 -20 -16 -5 -25 6 -3 10 -11 10 -17 0 -7 -4 -7 -13 1 -8 6 -17 8 -20 4
-4 -3 -7 -1 -7 5 0 6 -11 9 -25 6 -31 -5 -33 4 -3 15 21 8 20 9 -15 26 -43 20
-44 31 -3 15 27 -10 46 -6 46 9 0 5 -14 11 -32 15 -37 7 -59 -9 -63 -46 -1
-13 -3 -27 -4 -31 0 -4 -9 -3 -19 2 -14 7 -21 4 -34 -19 -12 -21 -13 -27 -3
-24 7 3 16 12 19 20 7 19 26 18 26 -2 0 -13 3 -14 14 -5 9 8 16 8 20 2 4 -5
-3 -13 -15 -16 -21 -7 -18 -20 4 -20 7 0 12 -4 12 -10 0 -5 -8 -9 -17 -8 -21
3 -22 -1 -8 -28 8 -13 7 -19 0 -19 -6 0 -15 12 -20 26 -10 25 -38 29 -32 5 2
-9 -3 -9 -18 -1 -16 8 -24 6 -41 -11 -15 -15 -18 -24 -10 -32 14 -14 14 -30 1
-22 -6 3 -10 2 -10 -3 0 -6 -7 -13 -16 -16 -12 -4 -15 -2 -10 9 7 19 1 19 -31
-2 -26 -17 -26 -17 -14 6 7 12 10 25 7 28 -5 5 18 33 27 33 3 0 3 -10 0 -21
-6 -21 -5 -21 16 -3 11 10 21 19 21 20 0 0 -11 13 -24 27 -13 14 -26 32 -28
39 -8 22 -37 -9 -31 -32 3 -11 0 -20 -6 -20 -10 0 -15 14 -12 33 2 10 -53 -4
-57 -15 -2 -4 -8 -6 -13 -2 -15 9 -10 -10 11 -36 11 -14 20 -29 19 -35 0 -5
-6 -2 -14 8 -9 13 -20 17 -34 12 -12 -3 -19 -11 -16 -16 3 -5 -1 -6 -10 -3
-11 5 -13 10 -5 19 13 15 3 25 -18 18 -11 -5 -14 -2 -10 8 3 8 -5 22 -17 31
-19 15 -25 15 -34 4 -16 -19 -4 -45 18 -39 31 8 35 -26 6 -53 -13 -12 -27 -19
-30 -15 -2 5 -1 11 2 15 14 14 11 38 -4 32 -8 -3 -19 -6 -24 -6 -5 0 -9 -5 -9
-11 0 -5 5 -7 10 -4 20 12 9 -13 -16 -39 -15 -14 -22 -26 -15 -26 6 0 16 -11
22 -24 8 -17 17 -22 31 -18 15 4 19 1 16 -14 -2 -12 -12 -19 -28 -19 -18 0
-26 -6 -28 -22 -2 -13 1 -23 7 -23 16 0 17 -34 1 -50 -8 -8 -11 -12 -6 -8 6 5
18 8 29 8 14 0 17 -5 12 -19 -3 -11 -1 -22 5 -26 6 -3 8 -11 4 -16 -3 -5 -10
-7 -15 -4 -5 4 -9 1 -9 -5 0 -7 7 -10 15 -6 8 3 15 1 15 -4 0 -6 5 -10 11 -10
8 0 8 5 -1 15 -10 12 -10 15 1 15 8 0 24 3 37 6 13 4 22 2 22 -5 0 -5 -6 -8
-14 -5 -8 3 -16 -3 -19 -15 -4 -18 -1 -19 25 -14 28 6 30 5 19 -16 -9 -16 -9
-21 0 -21 8 0 8 -4 -1 -14 -6 -8 -18 -12 -26 -9 -8 3 -14 -1 -14 -11 0 -8 -12
-22 -27 -30 -16 -8 -24 -15 -20 -16 4 0 -1 -10 -13 -22 -22 -24 -26 -39 -8
-36 6 2 13 -6 15 -17 9 -46 13 -48 36 -14 31 46 76 58 114 32 38 -27 53 -19
53 28 0 42 2 44 31 29 17 -10 18 -18 13 -78 -6 -59 -4 -70 14 -92 18 -21 21
-22 22 -7 0 10 -7 20 -15 23 -19 8 -19 34 1 84 15 37 34 54 34 30 0 -5 5 -10
10 -10 6 0 10 7 10 15 0 8 5 15 11 15 5 0 9 -8 7 -18 -5 -31 64 -112 96 -112
12 0 28 -4 36 -10 12 -8 12 -13 -2 -44 -24 -49 -57 -69 -102 -61 -19 4 -40 13
-47 21 -18 22 -29 7 -29 -39 1 -62 15 -112 39 -138 11 -12 23 -31 27 -41 3
-10 11 -18 19 -18 16 0 13 32 -3 38 -15 5 -16 32 -2 32 6 0 10 -6 10 -14 0 -8
7 -16 15 -20 9 -3 12 -12 8 -22 -4 -12 -3 -15 5 -10 7 4 15 0 19 -10 4 -10 16
-28 27 -41 22 -26 73 -31 105 -11 15 9 31 9 71 0 63 -15 115 -14 157 1 l31 12
-24 75 c-26 77 -26 132 -2 186 16 35 80 30 71 -5 -5 -20 41 -56 62 -47 26 10
81 -14 115 -50 21 -22 28 -34 17 -31 -33 12 -17 -14 18 -29 46 -19 56 -18 47
5 -7 18 -108 106 -147 129 -18 10 -18 11 -2 12 24 0 140 -83 161 -115 9 -14
22 -25 29 -24 24 3 37 -1 37 -12 0 -8 -5 -8 -15 1 -8 7 -15 8 -15 2 0 -11 39
-28 88 -37 47 -9 39 -23 -10 -19 -24 3 -84 0 -134 -6 -82 -9 -94 -13 -125 -42
-72 -68 -57 -98 49 -99 113 -1 231 55 290 139 13 18 27 30 32 27 4 -2 10 13
14 35 4 29 18 51 46 79 45 43 176 111 215 111 14 0 47 11 73 24 54 27 74 24
66 -8 -3 -15 3 -29 20 -45 56 -52 40 -130 -40 -200 -49 -43 -149 -85 -198 -83
-17 1 -48 -5 -69 -12 -31 -10 -35 -15 -24 -24 30 -25 90 -42 150 -42 73 0 147
31 191 80 29 33 42 37 65 16 42 -37 125 -69 190 -74 58 -4 74 -1 118 22 29 14
64 41 78 61 l27 35 19 -23 c25 -30 25 -2 -1 30 -26 33 -25 51 3 77 27 25 41
56 25 56 -23 0 25 39 75 60 57 25 185 41 173 22 -10 -16 47 2 90 29 46 28 60
15 39 -35 -9 -21 -14 -43 -11 -49 3 -9 5 -8 5 1 2 21 27 13 39 -13 23 -50 12
-101 -31 -146 -51 -53 -287 -103 -347 -73 -23 11 -26 10 -27 -6 -2 -27 15 -37
88 -56 56 -14 75 -15 148 -4 76 11 88 16 126 51 42 39 42 39 78 24 75 -31 237
-12 253 30 10 25 27 17 64 -33 54 -72 78 -91 148 -112 76 -24 178 -26 274 -6
89 19 121 38 160 91 32 43 35 44 88 45 31 0 61 5 67 11 9 9 24 7 60 -5 64 -22
194 -33 263 -23 30 4 62 9 71 10 56 8 198 117 241 187 14 23 16 23 32 7 10 -9
24 -17 31 -17 8 0 15 -14 18 -33 l4 -32 1 33 2 32 21 -21 c29 -29 32 -20 9 37
-10 27 -22 58 -25 69 -5 15 -8 16 -14 6 -6 -10 -11 -4 -16 20 -3 19 -9 43 -12
54 l-6 20 -8 -20 c-4 -11 -8 -36 -9 -55 -2 -33 -3 -32 -22 24 -12 35 -27 60
-38 63 -12 3 -16 12 -12 29 2 13 1 32 -4 41 -4 10 -8 20 -8 23 -4 20 -20 30
-39 24 -32 -9 -32 -12 -7 -32 14 -11 19 -21 13 -25 -6 -4 -16 0 -23 8 -14 17
-40 20 -40 5 0 -5 9 -15 20 -22 11 -7 20 -16 20 -20 0 -5 -31 13 -70 38 -52
35 -75 45 -93 40 -27 -6 -57 17 -37 29 10 6 68 -9 103 -27 13 -6 26 -4 43 7
15 10 34 13 51 9 22 -4 25 -3 13 5 -13 9 -12 11 5 11 23 0 57 53 49 75 -4 8 1
18 10 21 17 7 22 39 7 49 -5 3 -13 1 -16 -5 -4 -6 -34 -24 -68 -41 -34 -18
-65 -37 -70 -44 -4 -8 -21 -16 -37 -20 -16 -4 -32 -11 -35 -16 -4 -5 -11 -9
-16 -9 -6 0 5 16 24 35 32 33 137 85 171 85 21 0 37 57 33 119 -4 60 -14 69
-74 70 -18 1 -33 4 -33 9 0 16 -48 9 -53 -8 -4 -17 -45 -30 -93 -30 -13 0 -24
-4 -24 -9 0 -19 83 -23 125 -6 11 5 -5 -11 -35 -34 -41 -32 -62 -41 -83 -38
-15 2 -30 0 -33 -5 -11 -18 -32 -8 -27 13 5 19 3 20 -33 13 -22 -4 -46 -17
-57 -31 -23 -29 -68 -32 -62 -4 2 13 -1 18 -9 15 -8 -3 -16 5 -20 18 -5 16 -9
19 -13 9 -14 -35 -63 -71 -50 -37 3 8 0 20 -8 26 -11 9 -18 7 -34 -9 -12 -12
-23 -21 -26 -21 -3 0 -19 -10 -34 -21 -16 -12 -34 -18 -40 -15 -6 4 -11 2 -11
-5 0 -18 -17 1 -24 26 -3 11 -4 1 -3 -22 3 -43 -6 -56 -17 -27 -3 9 -6 26 -6
39 0 27 -16 42 -23 23 -3 -7 -6 -4 -6 7 -1 17 -32 55 -45 55 -10 0 -36 -84
-37 -118 l-2 -37 -7 45 c-5 29 -3 61 6 90 8 25 14 46 14 46 0 1 -11 1 -25 0
-25 -1 -40 -20 -29 -37 3 -5 0 -9 -5 -9 -6 0 -16 -20 -22 -45 -6 -24 -17 -50
-25 -56 -18 -15 -18 -7 3 57 9 30 14 56 11 59 -11 12 -55 -18 -64 -44 -8 -20
-7 -30 3 -39 7 -7 13 -18 13 -25 0 -7 -4 -6 -10 3 -9 13 -10 13 -10 0 -1 -8
-8 -3 -16 13 -13 24 -13 30 1 49 20 29 19 38 -4 38 -21 0 -33 -22 -25 -44 3
-8 1 -17 -5 -21 -15 -9 -14 -31 4 -48 8 -8 20 -38 27 -68 8 -29 20 -55 27 -57
13 -4 12 12 -4 68 -3 8 5 21 16 28 12 8 18 9 15 4 -8 -13 56 -35 77 -27 10 4
17 -1 22 -14 3 -12 14 -21 23 -21 22 0 111 -44 138 -67 11 -10 29 -31 39 -46
l18 -28 -29 2 c-16 1 -53 -1 -81 -5 -34 -5 -53 -4 -53 2 0 6 -13 13 -29 17
-16 3 -32 12 -34 19 -4 9 -20 12 -51 10 -24 -2 -48 0 -51 6 -9 14 -45 -7 -45
-26 0 -8 -5 -12 -10 -9 -6 3 -19 4 -30 0 -25 -8 -20 -55 9 -84 20 -20 29 -61
14 -61 -15 0 -29 -46 -28 -87 1 -35 -1 -40 -13 -31 -10 9 -16 8 -23 -3 -7 -11
-9 -11 -9 4 0 28 -18 19 -25 -13 -7 -30 -29 -41 -38 -17 -4 9 -6 9 -6 0 -1
-17 -48 -17 -54 0 -4 9 -6 9 -6 0 -1 -18 -21 -16 -21 2 0 8 -4 15 -10 15 -17
0 -40 69 -33 102 3 18 2 29 -3 26 -5 -4 -9 13 -8 35 1 44 33 121 48 117 16 -3
28 29 17 48 -9 16 -10 16 -16 -1 -4 -9 -16 -17 -26 -17 -11 0 -25 -13 -35 -32
-10 -18 -19 -28 -21 -21 -2 6 10 33 26 61 17 27 31 63 31 80 0 17 5 34 10 37
16 10 12 21 -19 54 -20 21 -38 31 -59 31 -18 0 -32 6 -36 16 -9 23 -8 24 19
24 18 0 28 7 35 25 5 14 12 25 15 25 4 0 3 -4 0 -10 -3 -5 0 -10 7 -10 8 0 14
9 14 20 0 18 -5 20 -31 15 -16 -4 -42 -11 -58 -17 -19 -7 -31 -7 -40 1 -8 6
-17 8 -20 4 -16 -15 -5 32 10 49 17 19 16 19 -22 16 -33 -2 -45 2 -67 25 -38
37 -36 49 6 41 25 -4 41 -1 58 11 l23 17 -28 -5 c-25 -4 -26 -3 -14 12 8 9 12
22 10 29 -3 6 -1 12 4 12 13 0 35 -17 34 -26 -1 -5 8 -9 19 -9 31 0 25 19 -9
28 -35 9 -41 26 -11 34 25 7 26 23 2 23 -10 0 -27 6 -37 14 -12 8 -33 12 -56
9 -37 -5 -79 10 -79 28 0 5 11 22 25 37 18 19 21 28 12 35 -9 7 -9 10 1 14 6
2 12 12 12 20 0 9 6 13 15 9 8 -3 15 -1 15 4 0 6 -6 10 -12 10 -7 0 -23 11
-35 24 -22 23 -22 24 -3 29 11 3 20 13 20 24 0 11 3 14 8 7 11 -17 83 -64 98
-64 29 0 12 20 -27 32 -24 7 -44 19 -46 29 -3 10 -12 20 -21 24 -12 4 -6 12
27 30 24 14 53 25 65 25 11 0 28 4 36 9 16 11 -39 9 -80 -3 l-25 -7 25 22 c14
12 24 26 22 31 -2 9 58 38 80 38 7 -1 2 -7 -12 -15 l-25 -15 30 6 c17 4 44 19
60 34 47 43 60 43 113 5 26 -19 55 -43 66 -53 18 -16 18 -16 11 28 -8 46 -33
123 -34 104 -1 -13 -51 -26 -51 -13 0 5 7 9 15 9 18 0 19 14 5 41 -8 13 -7 25
2 42 7 12 11 26 10 31 -2 4 2 14 8 21 7 8 8 28 4 50 -5 27 -9 33 -16 23 -6 -9
-8 -2 -7 22 1 19 1 46 0 60 -1 20 -3 22 -11 10 -8 -13 -10 -13 -10 2 0 9 -3
23 -6 31 -3 10 1 17 13 19 14 3 11 9 -19 31 -39 30 -107 49 -92 26z m-980
-1010 c19 -11 32 -24 29 -28 -2 -5 -28 -11 -57 -14 -29 -4 -74 -15 -99 -24
-39 -15 -44 -20 -33 -31 16 -15 18 -32 4 -32 -5 0 -10 -8 -10 -18 0 -13 -9
-18 -31 -20 -45 -4 -51 -10 -34 -36 9 -13 17 -43 20 -67 2 -24 7 -53 10 -65 4
-13 1 -27 -9 -36 -22 -23 -83 -2 -92 32 -19 66 -25 113 -16 120 4 3 15 19 25
37 13 24 15 37 8 57 -8 20 -7 24 3 20 8 -3 17 -1 21 5 4 7 -3 11 -16 11 l-22
0 23 25 c13 14 28 25 33 25 5 0 18 11 28 24 22 28 39 33 123 35 44 1 67 -4 92
-20z m-1386 -139 c9 0 24 -13 33 -30 18 -30 18 -30 -7 -41 -23 -11 -45 -40
-28 -38 19 3 22 -3 12 -21 -6 -11 -17 -20 -24 -20 -17 0 -26 -22 -26 -60 0
-16 -5 -41 -10 -55 -9 -23 -13 -25 -25 -15 -10 9 -15 9 -15 1 0 -24 -31 -9
-46 23 -16 33 -16 35 12 72 16 22 32 41 37 42 4 2 7 23 7 46 0 28 7 52 20 69
11 14 20 31 20 38 0 10 3 10 12 1 7 -7 19 -12 28 -12z m938 -289 c4 -11 -4
-13 -36 -8 -22 4 -47 9 -55 13 -23 8 -28 -32 -6 -52 26 -23 24 -43 -6 -54 -29
-11 -46 -48 -38 -79 3 -12 1 -21 -6 -21 -6 0 -11 -7 -11 -15 0 -8 -4 -15 -9
-15 -5 0 -15 -16 -21 -35 -9 -28 -17 -35 -38 -35 -77 1 -105 36 -95 119 5 45
10 54 51 86 25 19 51 35 58 35 6 0 34 18 60 40 45 37 54 40 98 38 32 -2 51 -8
54 -17z m452 -85 c0 -7 -16 -18 -35 -25 -19 -7 -35 -18 -36 -24 0 -7 -2 -22
-3 -34 -2 -15 2 -20 13 -16 11 3 9 0 -3 -7 -14 -9 -20 -10 -26 -1 -5 9 -11 7
-20 -4 -8 -10 -10 -19 -4 -23 32 -24 43 -85 19 -115 -13 -18 -16 -16 -59 23
-48 45 -58 79 -35 122 8 15 8 19 0 14 -6 -4 -11 -2 -11 3 0 6 7 11 16 11 10 0
14 6 11 14 -4 10 0 13 14 11 15 -3 19 0 15 10 -3 8 -2 15 3 15 4 0 20 11 34
24 40 37 107 38 107 2z m950 24 c14 -4 19 -8 12 -9 -7 -1 -10 -6 -6 -12 3 -6
-7 -24 -22 -40 -26 -28 -88 -52 -161 -65 -15 -3 -35 -7 -44 -10 -9 -2 -22 2
-29 11 -10 12 -9 15 5 15 24 0 143 67 173 97 24 24 32 26 72 13z m746 -183 c9
14 12 11 18 -19 4 -20 2 -57 -4 -82 -13 -60 -51 -141 -59 -127 -4 6 -12 7 -21
1 -25 -16 -33 -11 -26 18 4 15 9 41 12 57 5 32 31 130 40 155 5 13 8 13 17 -2
10 -15 12 -15 23 -1z"/>
<path d="M2072 1762 c-9 -6 -6 -12 13 -20 14 -6 25 -19 25 -28 0 -10 17 -32
39 -50 60 -52 63 -121 3 -105 -21 6 -27 14 -28 35 -1 15 -7 32 -15 37 -12 8
-12 10 1 18 8 6 11 13 7 18 -5 4 -12 1 -17 -7 -7 -11 -11 -11 -23 -1 -13 10
-16 9 -22 -7 -3 -11 -4 -26 -3 -33 2 -8 -4 -13 -14 -11 -12 2 -15 -3 -11 -18
8 -30 -16 -24 -28 8 -8 18 -8 39 -1 65 9 37 9 38 -8 19 -12 -13 -27 -18 -42
-15 -19 4 -30 -4 -52 -36 -16 -23 -36 -41 -45 -42 -11 0 -8 -3 7 -9 36 -15 26
-19 -43 -16 -36 2 -65 1 -65 -1 0 -2 21 -13 46 -23 43 -19 151 -29 171 -17 5
3 81 2 168 -4 87 -5 160 -8 162 -6 1 2 -3 26 -11 53 -8 27 -18 80 -22 117 -5
49 -10 65 -17 58 -6 -6 -11 -29 -10 -51 1 -22 0 -40 -3 -40 -10 0 -44 42 -40
49 3 5 -4 21 -16 36 -15 19 -27 26 -45 22 -13 -2 -26 0 -29 4 -6 11 -15 11
-32 1z"/>
<path d="M3651 1691 c-7 -5 -14 -28 -16 -52 -4 -64 -4 -65 -14 -50 -7 11 -14
7 -31 -20 l-21 -34 3 29 c2 20 -2 30 -13 31 -8 2 -35 12 -59 24 -69 33 -104
25 -60 -14 11 -10 20 -31 20 -47 0 -18 5 -28 15 -28 19 0 19 -3 -5 -42 -11
-18 -20 -44 -21 -58 0 -16 -3 -19 -6 -10 -9 24 -27 31 -38 16 -12 -16 -37 -3
-48 24 -4 12 -6 11 -6 -3 -1 -10 3 -27 9 -37 5 -10 7 -32 4 -50 l-7 -31 -24
40 c-13 23 -28 41 -34 41 -13 0 -11 -12 5 -35 7 -11 13 -27 13 -35 0 -9 3 -29
7 -45 4 -18 3 -25 -2 -17 -12 18 -62 43 -62 32 0 -5 11 -17 25 -26 29 -19 34
-40 6 -24 -23 12 -31 13 -31 2 0 -4 10 -12 22 -17 27 -12 44 -65 22 -65 -9 0
-12 -4 -9 -10 7 -12 -8 -12 -57 -1 -27 6 -38 6 -38 -3 0 -6 15 -11 33 -12 17
-1 42 -5 55 -9 16 -5 22 -3 22 8 0 19 27 30 36 15 4 -6 7 -20 8 -30 1 -14 14
-24 43 -34 l43 -15 40 38 c66 62 153 109 238 128 84 19 150 48 158 70 3 7 12
16 19 19 8 3 12 0 9 -8 -7 -19 40 -39 91 -38 40 0 48 -4 72 -35 19 -25 32 -33
47 -29 11 3 28 -1 36 -9 18 -17 153 -65 181 -65 9 0 43 -16 75 -35 32 -19 61
-35 64 -35 8 0 27 55 36 103 4 24 2 37 -5 37 -6 0 -11 -6 -12 -12 0 -7 -5 0
-11 16 -9 26 -8 32 12 48 26 21 36 23 38 6 1 -13 9 -48 12 -58 1 -3 1 -9 0
-15 -1 -5 2 -7 6 -3 9 10 37 -30 40 -58 1 -12 17 -47 34 -78 30 -53 35 -96 9
-80 -9 5 -10 -2 -6 -26 8 -38 69 -126 86 -123 15 4 39 -46 47 -96 6 -40 29
-53 29 -17 0 9 6 20 12 24 7 5 14 22 16 39 2 17 10 42 19 55 14 21 14 26 -7
55 -17 26 -24 30 -34 20 -7 -7 -1 8 12 33 24 46 27 53 27 70 0 5 8 7 18 4 16
-5 16 -5 -1 6 -14 9 -15 15 -6 31 6 12 8 23 5 27 -3 3 -6 1 -6 -5 0 -6 -9 -13
-20 -16 -17 -4 -20 -2 -15 14 7 20 -18 28 -30 9 -3 -5 -13 -10 -21 -10 -12 0
-11 7 6 40 11 21 20 46 20 55 0 20 -30 19 -46 -2 -12 -16 -13 -11 -9 32 5 48
4 48 -6 15 -6 -19 -17 -42 -25 -50 -14 -13 -15 -12 -9 11 4 17 1 30 -9 38 -13
11 -16 11 -17 0 -2 -23 -20 54 -20 81 0 22 -2 21 -24 -15 -29 -47 -33 -29 -6
29 32 69 34 84 11 91 -11 3 -20 15 -20 26 0 21 -21 25 -50 9 -17 -9 -18 -8
-13 7 6 16 5 17 -12 3 -11 -9 -16 -10 -11 -2 10 17 -20 27 -38 13 -7 -6 -16
-26 -20 -43 -3 -17 -11 -37 -16 -43 -16 -19 -54 -6 -75 25 -11 16 -21 27 -24
25 -2 -2 -15 4 -29 15 -13 11 -28 17 -32 15 -5 -3 -11 -1 -15 4 -3 6 -12 8
-20 4 -8 -3 -15 -1 -15 5 0 5 -6 12 -13 15 -10 4 -13 -2 -9 -19 2 -13 8 -24
12 -24 5 0 10 -8 12 -17 2 -13 -15 -26 -65 -50 -38 -18 -71 -33 -75 -33 -3 0
23 19 59 42 55 37 61 43 41 46 -13 2 -33 -5 -44 -15 -20 -18 -21 -18 -13 6 5
16 4 21 -4 17 -6 -4 -11 -2 -11 4 0 7 6 10 14 7 8 -3 22 3 31 13 17 19 17 20
-1 26 -11 3 -27 10 -37 15 -14 8 -22 6 -33 -8 -7 -10 -14 -21 -14 -25 0 -5
-13 -8 -30 -8 -16 0 -33 -6 -37 -13 -4 -8 -21 -22 -38 -32 l-30 -19 26 30 c30
34 35 71 11 77 -13 3 -10 7 11 15 31 13 33 38 5 55 -17 11 -26 8 -101 -29 -16
-8 -35 -14 -44 -14 -8 0 -23 -10 -34 -22 l-19 -23 12 28 c14 34 -1 50 -45 44
-19 -3 -24 0 -17 7 14 14 13 27 -2 24 -7 -2 -12 3 -10 10 2 10 -4 11 -19 7
-18 -6 -21 -4 -15 10 8 22 -34 67 -53 56z"/>
<path d="M4211 1174 c12 -14 9 -20 -18 -44 l-31 -28 31 -12 c18 -7 64 -25 104
-41 39 -16 78 -29 86 -29 8 0 20 -7 27 -15 16 -19 30 -19 30 0 0 9 -11 21 -25
27 -14 6 -25 17 -25 24 0 7 -13 24 -30 37 -16 14 -30 31 -30 38 0 6 -8 9 -20
6 -13 -3 -31 3 -48 17 -15 13 -36 26 -46 30 -16 6 -17 4 -5 -10z"/>
<path d="M3325 1003 c4 -15 1 -23 -12 -26 -17 -4 -17 -5 0 -6 23 -1 22 -9 -5
-30 -22 -19 -18 -41 9 -41 13 0 13 -3 3 -15 -10 -12 -10 -15 4 -15 21 0 20 -9
-1 -27 -16 -13 -16 -13 7 -7 25 7 25 7 6 -15 -11 -11 -25 -21 -33 -21 -7 0
-13 -6 -13 -14 0 -17 27 -29 35 -16 4 6 11 10 17 10 6 0 6 -6 -2 -15 -10 -13
-10 -19 4 -34 21 -23 70 -17 63 8 -9 29 -30 85 -44 118 -20 48 -17 87 10 98
12 6 21 15 20 20 -1 6 6 18 15 28 15 17 14 17 -14 2 -37 -19 -44 -19 -61 3
-13 16 -14 15 -8 -5z"/>
<path d="M4919 580 c-7 -103 -19 -190 -30 -214 -7 -16 -8 -13 -4 14 11 62 15
135 8 120 -4 -8 -19 -64 -35 -125 -15 -60 -25 -92 -22 -71 5 36 4 39 -11 26
-13 -11 -16 -25 -12 -58 3 -27 -1 -54 -9 -71 -16 -30 -18 -51 -5 -51 5 0 11
10 13 22 2 12 12 23 23 25 36 7 109 3 143 -6 l34 -10 -4 53 c-3 49 -2 52 18
48 12 -2 25 1 28 7 4 6 16 11 26 11 23 0 60 37 54 54 -2 6 17 24 42 40 25 16
41 32 36 35 -5 3 -13 13 -18 22 -5 8 -29 33 -53 55 l-44 39 27 -43 c39 -62 24
-64 -20 -3 -20 29 -42 50 -48 48 -7 -3 -10 -29 -8 -78 2 -44 0 -69 -6 -61 -10
14 -23 -8 -40 -68 -9 -30 -10 -23 -11 55 -1 93 -14 142 -25 94 -3 -13 -8 -37
-10 -54 -3 -16 -3 2 0 40 3 58 0 75 -16 100 l-20 30 -1 -25z"/>
</g>
</svg>
